# xmcd
#
# Track frame offsets:
#	150
#	12175
#	26043
#	36208
#	47056
#	60157
#	72373
#	83407
#	96776
#	107230
#	119430
#	129046
#	141261
#	152436
#	163246
#	174447
#	187491
#	199397
#	210525
#	223819
#	234273
#	246593
#
# Disc length: 3441 seconds
#
# Revision: 0
# Processed by: cddbd v1.5.1PL0 Copyright (c) Steve Scherf et al.
# Submitted via: audiograbber 1.81.03
#
DISCID=390d6f16
DTITLE=Tex Williams - Hey Mr. Cotton Picker
DYEAR=1900
DGENRE=Westen Swing
TTITLE0=Big Bass Polka
TTITLE1=Castle of my dreams
TTITLE2=Chickashay gal
TTITLE3=Tulsa Trot
TTITLE4=Cowboy Polka
TTITLE5=Don´t make love to Mary
TTITLE6=Good night Cincinatti, Good Morning Tennessee
TTITLE7=With men who know Tobacco best
TTITLE8=Bronco Busters Ball
TTITLE9=She didn´t even kiss me goodbye
TTITLE10=I want to be near you
TTITLE11=Johnstown polka
TTITLE12=Hey Mr. Cotton Picker
TTITLE13=Blackstrap Molasses
TTITLE14=Just a pair of blue eyes
TTITLE15=Travelling Salesman Polka
TTITLE16=Only Politickin´ 
TTITLE17=The urn of the mantle
TTITLE18=Rose of the Alamo
TTITLE19=Shame on you
TTITLE20=Sweet little Boogalie
TTITLE21=Three little girls dressed in blue
EXTD=
EXTT0=
EXTT1=
EXTT2=
EXTT3=
EXTT4=
EXTT5=
EXTT6=
EXTT7=
EXTT8=
EXTT9=
EXTT10=
EXTT11=
EXTT12=
EXTT13=
EXTT14=
EXTT15=
EXTT16=
EXTT17=
EXTT18=
EXTT19=
EXTT20=
EXTT21=
PLAYORDER=
